<?xml version="1.0" encoding="UTF-8"?><svg id="Layer_2" xmlns="http://www.w3.org/2000/svg" viewBox="0 0 1357.38 581.13"><defs><style>.cls-1{fill:#231f20;}</style></defs><path class="cls-1" d="M765.76,172.14v-21.88h-10.94v-5.47h10.94v-10.94h10.94v10.94h10.94v5.47h-10.94v21.88h-10.94Z"/><path class="cls-1" d="M798.58,172.14v-5.47h-5.47v-21.88h10.94v21.88h16.41v-21.88h10.94v27.35h-32.82Z"/><path class="cls-1" d="M847.81,150.26h5.47v5.47h-5.47v16.41h-10.94v-27.35h10.94v5.47Zm21.88-5.47v5.47h-16.41v-5.47h16.41Z"/><path class="cls-1" d="M875.17,172.14v-27.35h32.82v5.47h5.47v21.88h-10.94v-21.88h-16.41v21.88h-10.94Z"/><path class="cls-1" d="M946.28,172.14v-5.47h-5.47v-16.41h5.47v-5.47h27.35v5.47h5.47v16.41h-5.47v5.47h-27.35Zm5.47-5.47h16.41v-16.41h-16.41v16.41Z"/><path class="cls-1" d="M990.05,172.14v-5.47h-5.47v-21.88h10.94v21.88h16.41v-21.88h10.94v27.35h-32.82Z"/><path class="cls-1" d="M1039.28,172.14v-21.88h-10.94v-5.47h10.94v-10.94h10.94v10.94h10.94v5.47h-10.94v21.88h-10.94Z"/><path class="cls-1" d="M782.17,221.37v-21.88h-10.94v-5.47h10.94v-10.94h10.94v10.94h10.94v5.47h-10.94v21.88h-10.94Z"/><path class="cls-1" d="M809.52,221.37v-38.29h10.94v10.94h21.88v5.47h5.47v21.88h-10.94v-21.88h-16.41v21.88h-10.94Z"/><path class="cls-1" d="M858.76,221.37v-5.47h-5.47v-16.41h5.47v-5.47h27.35v5.47h5.47v10.94h-27.35v5.47h21.88v5.47h-27.35Zm5.47-16.41h16.41v-5.47h-16.41v5.47Z"/><path class="cls-1" d="M907.99,221.37v-5.47h10.94v-27.35h-5.47v-5.47h16.41v32.82h5.47v5.47h-27.35Z"/><path class="cls-1" d="M940.81,221.37v-5.47h5.47v-16.41h-5.47v-5.47h16.41v21.88h5.47v5.47h-21.88Zm5.47-32.82v-5.47h10.94v5.47h-10.94Z"/><path class="cls-1" d="M973.63,226.84v-5.47h21.88v-5.47h-21.88v-5.47h-5.47v-10.94h5.47v-5.47h32.82v27.35h-5.47v5.47h-27.35Zm5.47-16.41h16.41v-10.94h-16.41v10.94Z"/><path class="cls-1" d="M1011.93,221.37v-38.29h10.94v10.94h21.88v5.47h5.47v21.88h-10.94v-21.88h-16.41v21.88h-10.94Z"/><path class="cls-1" d="M1066.63,221.37v-21.88h-10.94v-5.47h10.94v-10.94h10.94v10.94h10.94v5.47h-10.94v21.88h-10.94Z"/><path class="cls-1" d="M1093.98,221.37v-5.47h27.35v-5.47h-21.88v-5.47h-5.47v-5.47h5.47v-5.47h27.35v5.47h-21.88v5.47h21.88v5.47h5.47v5.47h-5.47v5.47h-32.82Z"/><g><path class="cls-1" d="M765.76,331.11v-21.88h-10.94v-5.47h10.94v-10.94h10.94v10.94h10.94v5.47h-10.94v21.88h-10.94Z"/><path class="cls-1" d="M798.58,331.11v-5.47h-5.47v-21.88h10.94v21.88h16.41v-21.88h10.94v27.35h-32.82Z"/><path class="cls-1" d="M847.81,309.22h5.47v5.47h-5.47v16.41h-10.94v-27.35h10.94v5.47Zm21.88-5.47v5.47h-16.41v-5.47h16.41Z"/><path class="cls-1" d="M875.17,331.11v-27.35h32.82v5.47h5.47v21.88h-10.94v-21.88h-16.41v21.88h-10.94Z"/><g><path class="cls-1" d="M957.22,331.11v-5.47h-5.47v-16.41h5.47v-5.47h27.35v5.47h5.47v16.41h-5.47v5.47h-27.35Zm5.47-5.47h16.41v-16.41h-16.41v16.41Z"/><path class="cls-1" d="M1000.99,331.11v-5.47h-5.47v-21.88h10.94v21.88h16.41v-21.88h10.94v27.35h-32.82Z"/><path class="cls-1" d="M1050.22,331.11v-21.88h-10.94v-5.47h10.94v-10.94h10.94v10.94h10.94v5.47h-10.94v21.88h-10.94Z"/></g><path class="cls-1" d="M782.17,380.34v-21.88h-10.94v-5.47h10.94v-10.94h10.94v10.94h10.94v5.47h-10.94v21.88h-10.94Z"/><path class="cls-1" d="M809.52,380.34v-38.29h10.94v10.94h21.88v5.47h5.47v21.88h-10.94v-21.88h-16.41v21.88h-10.94Z"/><path class="cls-1" d="M858.76,380.34v-5.47h-5.47v-16.41h5.47v-5.47h27.35v5.47h5.47v10.94h-27.35v5.47h21.88v5.47h-27.35Zm5.47-16.41h16.41v-5.47h-16.41v5.47Z"/><path class="cls-1" d="M918.93,380.34v-5.47h10.94v-27.35h-5.47v-5.47h16.41v32.82h5.47v5.47h-27.35Z"/><path class="cls-1" d="M951.75,380.34v-5.47h5.47v-16.41h-5.47v-5.47h16.41v21.88h5.47v5.47h-21.88Zm5.47-32.82v-5.47h10.94v5.47h-10.94Z"/><path class="cls-1" d="M984.57,385.81v-5.47h21.88v-5.47h-21.88v-5.47h-5.47v-10.94h5.47v-5.47h32.82v27.35h-5.47v5.47h-27.35Zm5.47-16.41h16.41v-10.94h-16.41v10.94Z"/><path class="cls-1" d="M1022.87,380.34v-38.29h10.94v10.94h21.88v5.47h5.47v21.88h-10.94v-21.88h-16.41v21.88h-10.94Z"/><path class="cls-1" d="M1077.57,380.34v-21.88h-10.94v-5.47h10.94v-10.94h10.94v10.94h10.94v5.47h-10.94v21.88h-10.94Z"/><path class="cls-1" d="M1104.92,380.34v-5.47h27.35v-5.47h-21.88v-5.47h-5.47v-5.47h5.47v-5.47h27.35v5.47h-21.88v5.47h21.88v5.47h5.47v5.47h-5.47v5.47h-32.82Z"/></g><g><rect class="cls-1" x="1330.03" y="270.3" width="5.47" height="5.47"/><rect class="cls-1" x="1335.5" y="270.3" width="5.47" height="5.47"/><rect class="cls-1" x="1340.97" y="270.3" width="5.47" height="5.47"/><rect class="cls-1" x="1346.44" y="270.3" width="5.47" height="5.47"/><rect class="cls-1" x="1351.91" y="270.3" width="5.47" height="5.47"/></g></svg>